<svg xmlns="http://www.w3.org/2000/svg" width="29" height="23" viewBox="0 0 29 23" fill="none">
  <g clip-path="url(#clip0_45222_29)">
    <path d="M1.87036 5.43312C1.87036 4.57809 2.38546 4.11704 3.41567 4.04998L7.38551 4.07513C7.65195 4.07513 7.82957 4.20087 7.91838 4.45235C8.32691 5.70974 8.78428 6.7953 9.2905 7.70901C9.79673 8.62271 10.4584 9.67474 11.2754 10.8651C11.3465 11.016 11.4619 11.0914 11.6218 11.0914C11.7461 11.0914 11.8438 11.0327 11.9149 10.9154L11.9948 10.6387L12.0214 6.28815C12.0214 5.98637 11.9459 5.78519 11.795 5.6846C11.644 5.58401 11.3642 5.50856 10.9557 5.45827C10.636 5.40797 10.4761 5.22355 10.4761 4.90501C10.4761 4.83795 10.485 4.78765 10.5028 4.75412C10.8758 3.66438 11.9415 3.11951 13.7 3.11951L15.192 3.09436C15.8669 3.09436 16.4265 3.25363 16.8705 3.57217C17.3146 3.89071 17.5366 4.39367 17.5366 5.08105V10.7896C17.6609 10.8735 17.7764 10.9154 17.883 10.9154C18.1494 10.9154 18.3803 10.7645 18.5757 10.4627C20.5295 7.88085 21.5864 6.15403 21.7462 5.28223C21.7462 5.26546 21.764 5.22355 21.7995 5.15649C21.9238 4.90501 22.1281 4.68706 22.4123 4.50264C22.6965 4.31823 22.9452 4.19249 23.1583 4.12543C23.2294 4.09189 23.3093 4.07513 23.3981 4.07513H27.5278L27.7942 4.10028C28.1495 4.10028 28.4248 4.25955 28.6202 4.57809C28.6912 4.67868 28.7401 4.78765 28.7667 4.90501C28.7934 5.02237 28.8111 5.13973 28.82 5.25708C28.8289 5.37444 28.8333 5.4415 28.8333 5.45827V5.6343C28.709 6.32168 28.3937 7.05516 27.8875 7.83474C27.3813 8.61433 26.7374 9.45679 25.9559 10.3621C25.1743 11.2674 24.6859 11.8626 24.4905 12.1476C24.3306 12.3488 24.2507 12.5332 24.2507 12.7009C24.2507 12.835 24.3217 12.9859 24.4638 13.1535L28.3537 17.7808C28.5669 18.049 28.6735 18.3424 28.6735 18.6609C28.6735 19.0465 28.5136 19.3651 28.1939 19.6166C27.8742 19.868 27.4923 20.0105 27.0482 20.0441L26.5953 20.0692H22.5455C22.5278 20.0692 22.4922 20.0734 22.4389 20.0818C22.3857 20.0902 22.3501 20.0944 22.3324 20.0944C21.9416 20.0944 21.5775 19.9351 21.24 19.6166C21.1157 19.4824 20.2808 18.4933 18.7355 16.6491C18.6467 16.5317 18.5224 16.4228 18.3625 16.3222C18.2915 16.5904 18.1982 16.976 18.0828 17.479C17.9673 17.9819 17.883 18.3424 17.8297 18.5603L17.7497 18.9879C17.5721 19.5746 17.1991 19.9267 16.6307 20.0441L16.2577 20.0692H13.6467C12.1724 20.0692 10.7026 19.4321 9.23722 18.158C7.77184 16.8838 6.453 15.2366 5.2807 13.2164C4.10839 11.1962 3.01602 8.84485 2.00358 6.16241C1.91477 5.94446 1.87036 5.70136 1.87036 5.43312ZM17.883 11.9464C17.5099 11.9464 17.1725 11.85 16.8705 11.6572C16.5686 11.4644 16.4176 11.2004 16.4176 10.8651V5.08105C16.4176 4.74574 16.3288 4.50684 16.1511 4.36433C15.9735 4.22183 15.6627 4.15057 15.2186 4.15057L13.7 4.20087C12.9362 4.20087 12.3589 4.32661 11.9682 4.57809C12.7497 4.93016 13.1405 5.50018 13.1405 6.28815V10.7142C13.1049 11.1333 12.9273 11.4812 12.6076 11.7578C12.2879 12.0344 11.9326 12.1728 11.5419 12.1728C11.009 12.1728 10.6005 11.9297 10.3163 11.4435C8.93082 9.46517 7.90062 7.58746 7.22565 5.81034L6.98586 5.15649L3.44231 5.13134C3.2114 5.13134 3.08263 5.14392 3.05599 5.16906C3.02934 5.19421 3.01602 5.26547 3.01602 5.38282C3.01602 5.53371 3.03378 5.69298 3.06931 5.86063L3.62882 7.26892C5.12084 10.907 6.74163 13.7738 8.49121 15.8695C10.2408 17.9652 11.9593 19.013 13.6467 19.013H16.311C16.4176 19.013 16.4975 18.9837 16.5508 18.925C16.6041 18.8663 16.6485 18.7531 16.684 18.5855L16.7373 18.334L17.2435 16.121C17.3856 15.8192 17.5099 15.618 17.6165 15.5174C17.8119 15.333 18.0428 15.2408 18.3092 15.2408C18.7355 15.2408 19.1707 15.4839 19.6148 15.9701L21.8794 18.6861C22.0215 18.904 22.1725 19.013 22.3324 19.013H26.7285C27.2614 19.013 27.5278 18.8873 27.5278 18.6358C27.5278 18.552 27.5012 18.4681 27.4479 18.3843L23.5846 13.8325C23.2826 13.4805 23.1317 13.1032 23.1317 12.7009C23.1317 12.2985 23.2738 11.9129 23.558 11.5441C23.7889 11.2088 24.2374 10.6513 24.9034 9.87173C25.5695 9.09214 26.1512 8.36285 26.6486 7.68386C27.1459 7.00486 27.4745 6.38874 27.6344 5.83548L27.7143 5.50856C27.6965 5.47503 27.6877 5.42054 27.6877 5.3451C27.6877 5.26966 27.6788 5.20679 27.661 5.15649H23.478C23.2116 5.25708 22.9985 5.40797 22.8386 5.60915L22.6787 6.08696C22.2347 7.24377 21.0713 9.02927 19.1885 11.4435C18.8155 11.7788 18.3803 11.9464 17.883 11.9464Z" fill="currentColor"/>
  </g>
  <defs>
    <clipPath id="clip0_45222_29">
      <rect width="28" height="22" fill="white" transform="translate(0.870361 0.0943604)"/>
    </clipPath>
  </defs>
</svg>
