<svg xmlns="http://www.w3.org/2000/svg" width="35" height="34" fill="none"><path fill="#63D1BB" d="M.3 14a16 16 0 000 6.2L4.5 17 .3 14zM24.9 1.6A18 18 0 009.3 2l7.6 5.5 8-6zM34.5 13l-4.9 3.7 5 3.7c.5-2.4.5-5 0-7.3zM9.4 32a17.8 17.8 0 0016 .2l-8.3-6L9.4 32zM8 14.2L1.7 9.7l-.8 2 5.4 4L8 14.2zm11 10.6l8.4 6.2.8-.6 1-.8-8.5-6.2-1.8 1.4zm-7.4-13.2L4.1 6c-.5.5-1 1.1-1.3 1.7l7 5.2 1.8-1.4zm10.9 10.6l8.3 6c.5-.5.9-1 1.3-1.7l-7.9-5.7-1.7 1.4zM15.2 9L7.3 3.1c-.2 0-.4.3-.6.4l-1.1 1 7.8 5.6 1.8-1.3zM26 19.4l7.2 5.1 1-2-6.3-4.5-1.8 1.4zm.9-16.7L.9 22.4l.8 2L28.7 4c-.5-.5-1.1-1-1.8-1.3zm4.4 3.8c-.3-.4-.6-.8-1-1L3 26.1c.2.5.5 1 .8 1.2 0 .2.3.4.4.5L31.8 7.1l-.5-.6zM32.9 9L5.7 29.4l1.7 1.4 26.5-20-1-2z"/></svg>