<svg xmlns="http://www.w3.org/2000/svg" xmlns:xlink="http://www.w3.org/1999/xlink"><defs><clipPath id="clip0_45222_29"><path fill="#fff" transform="translate(.87 .094)" d="M0 0h28v22H0z"/></clipPath></defs><symbol id="arrow-left" viewBox="0 0 50 26"><g fill="none"><path d="M50 11H7.7l8.1-8.2L13 0 0 13l13 13 2.8-2.8L7.7 15H50v-4z" fill="#000"/></g></symbol><symbol id="arrow-right" viewBox="0 0 50 26"><g fill="none"><path d="M0 11h42.3l-8.1-8.2L37 0l13 13-13 13-2.8-2.8 8.1-8.2H0v-4z" fill="#000"/></g></symbol><symbol id="box" viewBox="0 0 21 18"><g fill="none"><path d="M20.188 6.857h-3.55L13.188.381C12.985 0 12.58-.095 12.174.095s-.507.572-.304.953l3.145 5.81H5.783l3.145-5.81c.202-.381 0-.762-.305-.953-.406-.19-.811 0-1.014.286l-3.45 6.476H.812c-.406 0-.812.286-.812.762 0 .381.304.762.812.762h.202l.914 2.857c-.203.095-.305.286-.305.572 0 .38.305.666.71.666L4.058 18h12.884l1.725-5.524c.405 0 .71-.286.71-.667 0-.19-.102-.476-.304-.57l.912-2.858h.203c.406 0 .812-.286.812-.762 0-.476-.406-.762-.812-.762zm-4.565 9.62H5.073L3.854 12.38h13.087l-1.319 4.095zm1.623-5.525H3.348l-.812-2.666h15.522l-.812 2.666z" fill="currentColor"/></g></symbol><symbol id="email" viewBox="0 0 32 21"><g fill="none"><path d="M28 0H4C1.8 0 0 1.8 0 4v13c0 2.2 1.8 4 4 4h24c2.2 0 4-1.8 4-4V4c0-2.2-1.8-4-4-4zM2 5.3l7 5.3-7 5.3V5.3zM30 17c0 1.1-.9 2-2 2H4c-1.1 0-2-.9-2-2l7.8-5.9 4.4 3.3c.5.4 1.2.6 1.8.6.6 0 1.3-.2 1.8-.6l4.4-3.3L30 17zm0-1.2l-7-5.3 7-5.3v10.6zm-12.8-2.2c-.4.3-.8.4-1.2.4-.4 0-.9-.1-1.2-.4l-4.1-3.1-.8-.6L2 4c0-1.1.9-2 2-2h24c1.1 0 2 .9 2 2l-12.8 9.6z" fill="currentColor"/></g></symbol><symbol id="htmlacademy" viewBox="0 0 27 34"><g fill="currentColor"><path d="M13.759 0h-.1L.22 1.396v24.627L13.659 34 27 26.023V1.396L13.759 0zm11.35 12.065l-11.45-6.78v-.1h-.1l-.099-.1v.1l-11.35 6.88V3.09l11.45-1.197 11.548 1.197v8.974zM13.558 6.78l11.45 6.68-4.48 2.593-7.069-4.188v1.396l5.874 3.49-.896.498-4.978-2.99v1.395l3.783 2.293-.796.499-2.987-1.795v1.396l1.892 1.097-1.792 1.097-11.35-6.68 11.35-6.78zM2.11 15.056l11.35 6.78v.997l-7.865-4.686v1.396l7.965 4.785v1.097L5.595 20.74v1.396l7.965 4.786 8.064-4.886V16.85l3.385-1.994v9.971l-11.45 6.88-11.449-6.78v-9.871z" fill="#63D1BB"/></g></symbol><symbol id="logo" viewBox="0 0 102 35"><g fill="none"><g fill="#000"><path d="M19.22 21.5c-.1-2.7-.5-5.3-.5-8 0-2.2.4-4.4-.4-6.5 0-.2.1-.5.1-.7.2-1-3.3-.5-3.8.5-.3.3-.5.6-.4 1 0 .1.1.2.1.3-.7 3.2-1.6 6.3-2.6 9.4-.4 1.2-.9 2.3-1.3 3.5-.6-1.1-1.2-2.2-1.6-3.4-1.4-3.4-2.6-6.9-4.3-10.2.2-1.5-3.2-1.4-3.9 0-.8 1.7-.7 3.4-.4 5.2.3 2 .4 4 .4 6.1 0 4 .4 7.9.4 11.9-.4.4-.5.9-.1 1.4.2.2.4.4.6.5 1 .7 3.6.1 3.6-1.3 0-4.1-.3-8.2-.4-12.4v-1.2c.1.1.1.3.2.4.6 1.6 1.3 3.2 2.2 4.7.9 1.5 1.3 3.1 1.8 4.7-.2.2-.3.5-.2.7 0 .2.1.3.3.4.6.5 1.8.3 2.5 0 .3-.1.6-.3.8-.4.3-.2.9-.7.7-1.2 0-.1-.1-.2-.1-.3.5-1.3.7-2.6 1-3.9.3-1.4.8-2.8 1.3-4.1.1.6.1 1.2.2 1.9.2 2.6 0 5.1 0 7.6 0 .8.1 1.6.2 2.5.1.3.4 1.8.3 1.9-.8.5-.6 1.1.2 1.3.9.2 2.1-.1 2.8-.7 1.2-1.1.6-2.8.4-4.2-.5-2.4 0-5-.1-7.4zM27.62 22.2c-.1-2-.8-3.9-.8-5.9 0-2.3.2-4.6-.2-6.9-.1-.7-4.1.1-3.9 1 .3 2.1.2 4.2.2 6.4 0 2 .5 3.9.7 5.9.3 2.1-.1 4.2.1 6.2.1 1 .8 2.7.1 3.6-.4.5 1.5.3 1.6.3.8-.1 1.8-.4 2.3-1 .7-.8.2-2.4.1-3.4-.3-2-.1-4.2-.2-6.2zM43.92 18.9c-2.1-2.8-5.9-.8-8.6-1.5-1.4-.4-1.4-2.3-1.4-3.4 0-1.4-.1-2.7-.3-4.1-.1-1.1 0-2.1.7-2.9.1-.1.9-.3.8-.3.4-.1.7-.1 1.1-.1 1.5-.1 4.6.2 4 2.5-.3 1 3.6.4 3.9-.6 1.2-4.6-7.3-3.7-9.7-3.1-2.2.6-4.6 1.8-4.8 4.4-.1 1.2.3 2.4.3 3.6.1 1.4-.2 2.8.3 4.1 1.1 3 5.5 1.6 7.8 1.7 3.8.3 2.7 5.5 2.7 7.9 0 1.3 1.2 3.4.2 4.5-.6.7-2 .7-2.8.8-.8.1-2.2.3-2.7-.5-1-1.4.1-3.8-.1-5.4-.1-.9-4.1-.1-3.9 1 .3 2.6-1.4 6.1 2.4 6.6 2.4.3 5.2-.2 7.5-.9 1.2-.4 2.3-.9 3.2-1.8 1-.9.7-2.3.4-3.5-.5-3.1.9-6.5-1-9zM61.32 18.7c-.1-3.8-.7-7.5-.7-11.3 0-2-4-1.3-4 .3 0 3.6.5 7.2.7 10.8v.2c-1.9 0-3.9.2-5.9.2.2-4.6-.6-9.2-.4-13.9 0-.6-3.9-.1-3.9 1-.2 4.5.6 8.9.5 13.4-.1 2.1-.2 4.3-.3 6.4 0 1.1.2 2.2.3 3.3.1 1 .5 2.3.2 3.3-.2.8 3.6.3 3.9-.7.5-1.8-.2-4-.4-5.8-.2-1.7 0-3.5.1-5.2 2-.1 4.1-.3 6.1 0 .1 1.4.2 2.8.3 4.1.1 1.2.2 2.3.2 3.5 0 1 .1 2.5-.2 3.5-.8 2.1 3.1 1.9 3.7.4.7-1.9.5-4.2.4-6.2-.2-2.5-.6-4.9-.6-7.3zM78.22 23.1c-.9-2.8-2.4-5.2-3.6-7.8 1-1.9 2-3.9 2.9-5.9.8-1.8 1.4-3.8 3.1-5.1.6-.4.6-.9-.3-1-.9-.1-2.1.2-2.8.7-1.4 1.3-2.4 2.7-3.1 4.4-.9 2.1-1.9 4.1-2.9 6.1-.1.1-.1.3-.2.4-.5.3-.8.8-.6 1.3-.8 1.6-1.6 3.1-2.5 4.6-.3-5.5-1-11.1-1.2-16.6 0-1.3-4-.5-3.9 1 .2 6.9 1.2 13.7 1.3 20.6v.1c-.3.3-.2.5.1.6 0 1.8-.1 3.5-.2 5.3-.5.7.5 1.1 1.1 1.1h.1c.7 0 2.6-.3 2.7-1.4.2-2.1.3-4.2.2-6.3 1.6-1.7 2.9-3.6 4.1-5.6.8 1.5 1.5 3 2 4.6.9 2.7 2.3 5.3 3.1 8 .5 1.8 4.5.7 3.9-1-1-2.8-2.4-5.3-3.3-8.1zM101.72 18.5c-.2-.8-1.4-.8-2.3-.8v-1c-.1-2.7-.2-5.4-.4-8-.2-2.5-1.6-3.3-4-3.2-2.4.1-5.2.5-7.5 1.4-2.6 1-4.1 2.9-4.6 5.7-.5 3 .2 6.2.4 9.2.2 3.5.1 7 .1 10.5 0 .6 3.9 0 3.9-1V23c0-.8-.1-1.6-.1-2.4 1.4-.6 3.7 0 5.1.1 1.1.1 2.2-.2 3.2-.3 0 2.3.1 4.6.2 6.9 0 1.2.5 3.5-.4 4.5-.4.5 1.5.3 1.6.3.8-.1 1.8-.4 2.3-1 .9-1.1.5-3.8.4-5.1-.1-1.9-.1-3.8-.1-5.7 1.1-.2 2.4-.9 2.2-1.8zm-14.6-.1c-.1-1.2-.2-2.5-.3-3.7-.2-2.3.1-5.6 2.3-7 .6-.4 1.7-.3 2.4-.4 1-.2 2-.4 2.8.2 1.2.8.9 3.7.9 4.9 0 2 .2 4 .3 6-.6.1-1.1.1-1.7.1-2.3-.2-4.6-.6-6.7-.1zM24.22 6.7c.5-.1 1-.2 1.5-.5l.2-.2c.5-.3 1-.8.7-1.4-.5-1.1-.4-2.2-.4-3.4 0-1-1-1.2-1.8-1.2-.7.1-2.2.6-2.2 1.5 0 1-.1 2 .1 3 0 .1-.1.2-.1.4-.1.2 0 .4.1.6v.4c.1.2.2.4.4.5.6.3 1.1.3 1.5.3z"/></g></g></symbol><symbol id="room"><g fill="none"><g fill="#149080" opacity=".5"><path d="M15.2 37.7c-.3 1-.2 2.2 0 3.6.5 2.6 1.7 6 2.4 9.7h5c.7-3.6 2-7 2.5-9.7.3-1.4.3-2.7 0-3.6-.3-.9-.9-1.6-2-2.3h-6c-1.1.7-1.7 1.4-2 2.3zM27 57.6H13.1c-1.3 0-2.3 1-2.3 2.2V62h18.3v-2.2c0-1.2-1-2.2-2.3-2.2zm7-55.4H22.3C22.3 1 21.3 0 20 0c-1.2 0-2.2 1-2.2 2.2H6L0 27.6c.8-.5 1.6-1 2.6-1 1.4 0 2.2.8 2.9 1.4.7.6 1.2.8 1.4.8.3 0 .8-.3 1.5-.8s1.6-1.4 2.9-1.4c1.3 0 2.2.8 2.9 1.4.7.5 1.2.8 1.5.8l.6-.2.9-.6c.5-.4 1-1 2-1.2l.8-.1c1.3 0 2.2.8 3 1.4.6.5 1.1.8 1.4.8.3 0 .8-.3 1.4-.8.7-.6 1.6-1.4 3-1.4 1.3 0 2.1.8 2.8 1.4.3.3.6.5 1 .6l.5.2c.3 0 .8-.3 1.4-1 .7-.5 1.6-1.3 3-1.3.9 0 1.7.5 2.5 1L34 2.2zM23.4 53.1h-6.8c-.7 0-1.1.5-1.1 1.1 0 .6.5 1.1 1 1.1h7c.6 0 1-.5 1-1 .1-.7-.4-1.2-1-1.2z"/><path d="M20 28.8l-.5.2c-.2 0-.4.3-.6.4V33H21v-3.5l-1-.7z"/></g></g></symbol><symbol id="search" viewBox="0 0 18 18"><g fill="none"><path d="M17.693 16.057l-3.477-3.477c1.023-1.33 1.534-2.966 1.534-4.705C15.75 3.477 12.273 0 7.875 0S0 3.477 0 7.875s3.477 7.875 7.875 7.875c1.739 0 3.375-.614 4.704-1.534l3.478 3.477c.204.205.409.307.818.307.614 0 1.125-.511 1.125-1.125 0-.204-.102-.511-.307-.818zM2.25 7.875c0-3.068 2.557-5.625 5.625-5.625S13.5 4.807 13.5 7.875 10.943 13.5 7.875 13.5 2.25 10.943 2.25 7.875z" fill="currentColor"/></g></symbol><symbol id="tel" viewBox="0 0 25 24"><g fill="none"><g fill="currentColor"><path d="M17.44 24h-1.11c-4.939-.593-8.568-2.864-11.189-5.728C2.521 15.408.403 11.753 0 6.716V5.333c.1-.888.504-1.481 1.109-2.074.605-.69 1.613-1.481 2.52-1.58.706 0 1.815.494 2.218 1.087.403.493.605 1.58.806 2.37.202.889.605 1.975.504 2.765-.201 1.186-1.814 1.68-2.217 2.568 1.612 3.655 4.133 6.42 7.56 8.198.806-.494 1.613-1.877 2.823-1.877.403 0 1.008.198 1.41.297.505.098.908.296 1.311.493.706.297 2.017.593 2.42 1.186.403.592.705 1.58.605 2.172-.303 1.284-2.42 2.667-3.63 3.062zM12.6 1.481c5.948 0 10.888 4.741 10.888 10.667H25C25 5.432 19.456 0 12.6 0v1.481z"/><path d="M12.6 9.185v1.58c.807 0 1.412.593 1.412 1.383h1.613c0-1.58-1.31-2.963-3.024-2.963zM12.6 6.124c3.327 0 6.15 2.666 6.15 6.024h1.613c0-4.148-3.427-7.506-7.661-7.506v1.482H12.6z"/></g></g></symbol><symbol id="telegram" viewBox="0 0 29 23"><g fill="none"><path fill-rule="evenodd" clip-rule="evenodd" d="M24.202 3.247c.178.15.264.382.226.612l-2.626 15.757a.657.657 0 01-1.012.438l-7.878-5.252a.657.657 0 01-.149-.957l2.61-3.263-4.359 2.907a.656.656 0 01-.658.04l-5.252-2.625a.656.656 0 01.073-1.206L23.56 3.133a.656.656 0 01.642.114zm-17.135 7.17l3.536 1.768 7.561-5.041a.657.657 0 01.877.956l-4.805 6.007 6.438 4.291 2.275-13.653-15.882 5.672z" fill="currentColor"/></g></symbol><symbol id="toy"><g fill="none"><path fill="#149080" d="M0 44l27.4 16V36.5L0 20.5V44zm51.3-31.5V15c0 1.8-3.5 3.3-7.7 3.3-4.3 0-7.7-1.5-7.7-3.3v-4.1c.3 1.7 3.6 3 7.7 3 4.3 0 7.7-1.4 7.7-3.2 0-1.8-3.5-3.4-7.7-3.4h-1l-5-2.9v3.2c0 1.8-3.5 3.3-7.7 3.3-2.7 0-5-.6-6.4-1.5l-.7-.6c-.4-.4-.6-.8-.6-1.2v-3l-4.8 2.7h-1.1C12 7.3 8.6 9 8.6 10.7c0 1.8 3.5 3.3 7.7 3.3 4.1 0 7.4-1.4 7.7-3.1V15c0 1.8-3.5 3.3-7.7 3.3-4.3 0-7.7-1.5-7.7-3.3v-2.4l-6 3.5 27.5 16.1 27.4-16-6.2-3.7zM37.7 22.8c0 1.8-3.5 3.3-7.7 3.3-4.3 0-7.7-1.5-7.7-3.3v-4.2c.3 1.7 3.6 3.1 7.7 3.1s7.4-1.4 7.7-3v4zm-5.1 14V60L60 44V20.7l-27.4 16zM29.9 6.5c4.3 0 7.7-1.5 7.7-3.3 0-1.8-3.5-3.3-7.7-3.3-4.3 0-7.7 1.5-7.7 3.3 0 1.8 3.4 3.3 7.7 3.3z" opacity=".5"/></g></symbol><symbol id="vk" viewBox="0 0 29 23"><g fill="none"><g clip-path="url(#clip0_45222_29)"><path d="M1.87 5.433c0-.855.515-1.316 1.546-1.383l3.97.025a.52.52 0 01.532.377c.409 1.258.866 2.343 1.372 3.257.507.914 1.168 1.966 1.985 3.156.072.151.187.226.347.226.124 0 .222-.058.293-.176l.08-.276.026-4.35c0-.303-.075-.504-.226-.604-.151-.101-.43-.176-.84-.227-.319-.05-.479-.234-.479-.553 0-.067.009-.117.027-.15.373-1.09 1.438-1.635 3.197-1.635l1.492-.026c.675 0 1.235.16 1.678.478.445.319.667.822.667 1.51v5.708a.63.63 0 00.346.125c.266 0 .497-.15.693-.452 1.953-2.582 3.01-4.309 3.17-5.18 0-.018.018-.06.053-.127.125-.251.33-.469.613-.653.285-.185.533-.31.746-.378a.555.555 0 01.24-.05h4.13l.266.025c.355 0 .63.16.826.478.071.1.12.21.147.327.026.117.044.235.053.352.009.117.013.184.013.201v.176c-.124.688-.44 1.421-.945 2.2-.507.78-1.15 1.623-1.932 2.528s-1.27 1.5-1.465 1.786c-.16.2-.24.385-.24.553 0 .134.07.285.213.452l3.89 4.628c.213.268.32.561.32.88 0 .386-.16.704-.48.956-.32.251-.702.393-1.146.427l-.453.025h-4.05a.864.864 0 00-.106.013.861.861 0 01-.107.012c-.39 0-.755-.159-1.092-.477-.124-.135-.96-1.124-2.505-2.968a1.384 1.384 0 00-.372-.327c-.072.268-.165.654-.28 1.157-.116.503-.2.863-.253 1.081l-.08.428c-.178.587-.55.939-1.12 1.056l-.372.025h-2.611c-1.475 0-2.944-.637-4.41-1.911-1.465-1.274-2.784-2.921-3.956-4.942-1.173-2.02-2.265-4.371-3.277-7.054a1.916 1.916 0 01-.134-.729zm16.013 6.513c-.373 0-.71-.096-1.012-.289-.302-.193-.453-.457-.453-.792V5.081c0-.335-.09-.574-.267-.717-.178-.142-.488-.213-.932-.213L13.7 4.2c-.764 0-1.341.126-1.732.377.782.352 1.172.922 1.172 1.71v4.426a1.5 1.5 0 01-.532 1.044 1.59 1.59 0 01-1.066.415c-.533 0-.941-.243-1.226-.73-1.385-1.978-2.415-3.856-3.09-5.633l-.24-.654-3.544-.025c-.23 0-.36.013-.386.038-.027.025-.04.096-.04.214 0 .15.018.31.053.478l.56 1.408c1.492 3.638 3.113 6.505 4.862 8.6 1.75 2.096 3.468 3.144 5.156 3.144h2.664c.107 0 .186-.03.24-.088.053-.059.098-.172.133-.34l.053-.251.507-2.213c.142-.302.266-.503.372-.604a.976.976 0 01.693-.276c.426 0 .862.243 1.306.73l2.264 2.715c.142.218.293.327.453.327h4.396c.533 0 .8-.126.8-.377a.466.466 0 00-.08-.252l-3.863-4.552c-.302-.352-.453-.729-.453-1.131s.142-.788.426-1.157c.23-.335.68-.893 1.345-1.672a37.678 37.678 0 001.746-2.188c.497-.68.825-1.295.985-1.849l.08-.326a.37.37 0 01-.026-.164.572.572 0 00-.027-.189h-4.183c-.266.101-.48.252-.64.453l-.16.478c-.443 1.157-1.607 2.942-3.49 5.357a1.892 1.892 0 01-1.305.502z" fill="currentColor"/></g></g></symbol><symbol id="youtube" viewBox="0 0 29 23"><g fill="none"><path d="M18.592 10.887l-5.236-3.49a.654.654 0 00-1.015.545v6.982a.654.654 0 001.014.545l5.237-3.49a.654.654 0 000-1.092zm-4.942 2.815V9.164l3.404 2.269-3.404 2.269zm12.48-8.564a2.4 2.4 0 00-1.45-1.636c-3.72-1.43-9.688-1.407-9.939-1.407-.25 0-6.218-.022-9.938 1.407a2.4 2.4 0 00-1.451 1.636c-.284 1.07-.611 3.033-.611 6.295 0 3.261.327 5.225.61 6.294a2.4 2.4 0 001.452 1.637c3.72 1.429 9.687 1.407 9.938 1.407h.076c.753 0 6.317-.044 9.862-1.407a2.4 2.4 0 001.451-1.637c.284-1.069.611-3.033.611-6.294 0-3.262-.327-5.226-.61-6.295zM24.865 17.4a1.091 1.091 0 01-.655.742c-3.49 1.342-9.404 1.32-9.469 1.32-.066 0-5.978.022-9.47-1.32a1.091 1.091 0 01-.654-.742c-.261-1.004-.567-2.847-.567-5.967 0-3.12.306-4.964.567-5.968a1.09 1.09 0 01.655-.741c3.49-1.342 9.404-1.32 9.469-1.32.065 0 5.978-.022 9.47 1.32a1.092 1.092 0 01.654.741c.261 1.004.567 2.848.567 5.968s-.306 4.963-.567 5.967z" fill="currentColor"/></g></symbol></svg>